<mxfile host="app.diagrams.net" agent="Mozilla/5.0 (Windows NT 10.0; Win64; x64) AppleWebKit/537.36 (KHTML, like Gecko) Chrome/127.0.0.0 Safari/537.36" version="24.7.6">
  <diagram name="Page-1" id="Page-1">
    <mxGraphModel dx="2280" dy="1969" grid="1" gridSize="10" guides="1" tooltips="1" connect="1" arrows="1" fold="1" page="1" pageScale="1" pageWidth="850" pageHeight="1100" math="0" shadow="0">
      <root>
        <mxCell id="0" />
        <mxCell id="1" parent="0" />
        <UserObject label="&lt;div style=&quot;font-size: 1px&quot;&gt;&lt;font style=&quot;font-size:17.46px;font-family:Helvetica;color:#000000;direction:ltr;letter-spacing:0px;line-height:120%;opacity:1&quot;&gt;DaSSCo on DeIC&lt;/font&gt;&lt;/div&gt;" tags="Background" id="2">
          <mxCell style="verticalAlign=middle;align=center;overflow=width;vsdxID=1;fillColor=#d5e8d4;gradientColor=none;shape=stencil(nZBRDoQgDERP03+WHsHFe5iISyOCQdT19kIaIxq//Jtp3zTpAFaTaUYNUkwx+F6v1EYD+AUpyRkdKCYFqACrzgf9C352LfuxyWRWg1/yhT/nRE5IsZWuZtCSK8CPeI0e/hF+jV7AJM4PO7KWCyr390bSiNtEtQM=);strokeColor=#82b366;spacingTop=-3;spacingBottom=-3;spacingLeft=-3;spacingRight=-3;points=[];labelBackgroundColor=none;rounded=0;html=1;whiteSpace=wrap;" parent="1" vertex="1">
            <mxGeometry x="590" y="170" width="820" height="360" as="geometry" />
          </mxCell>
        </UserObject>
        <UserObject label="&lt;div style=&quot;font-size: 1px&quot;&gt;&lt;font style=&quot;font-size:11.64px;font-family:Helvetica;color:#000000;direction:ltr;letter-spacing:0px;line-height:120%;opacity:1&quot;&gt;DeIC Nginx Sever&lt;/font&gt;&lt;/div&gt;" tags="Background" id="3">
          <mxCell style="verticalAlign=middle;align=center;overflow=width;vsdxID=2;fillColor=#ffffff;gradientColor=none;shape=stencil(nZBRDoQgDERP03+WHsHFe5iISyOCQdT19kIaIxq//Jtp3zTpAFaTaUYNUkwx+F6v1EYD+AUpyRkdKCYFqACrzgf9C352LfuxyWRWg1/yhT/nRE5IsZWuZtCSK8CPeI0e/hF+jV7AJM4PO7KWCyr390bSiNtEtQM=);strokeColor=#000000;spacingTop=-3;spacingBottom=-3;spacingLeft=-3;spacingRight=-3;points=[];labelBackgroundColor=none;rounded=0;html=1;whiteSpace=wrap;" parent="1" vertex="1">
            <mxGeometry x="640" y="215" width="106" height="280" as="geometry" />
          </mxCell>
        </UserObject>
        <UserObject label="&lt;div style=&quot;font-size: 1px&quot;&gt;&lt;font style=&quot;font-size:17.46px;font-family:Helvetica;color:#000000;direction:ltr;letter-spacing:0px;line-height:120%;opacity:1&quot;&gt;Specify System&lt;/font&gt;&lt;/div&gt;" tags="Background" id="4">
          <mxCell style="verticalAlign=middle;align=center;overflow=width;vsdxID=3;fillColor=#e1d5e7;gradientColor=none;shape=stencil(nZBRDoQgDERP03+WHsHFe5iISyOCQdT19kIaIxq//Jtp3zTpAFaTaUYNUkwx+F6v1EYD+AUpyRkdKCYFqACrzgf9C352LfuxyWRWg1/yhT/nRE5IsZWuZtCSK8CPeI0e/hF+jV7AJM4PO7KWCyr390bSiNtEtQM=);strokeColor=#9673a6;spacingTop=-3;spacingBottom=-3;spacingLeft=-3;spacingRight=-3;points=[];labelBackgroundColor=none;rounded=0;html=1;whiteSpace=wrap;" parent="1" vertex="1">
            <mxGeometry x="170" y="170" width="370" height="290" as="geometry" />
          </mxCell>
        </UserObject>
        <UserObject label="&lt;div style=&quot;font-size: 1px&quot;&gt;&lt;font style=&quot;font-size:11.64px;font-family:Helvetica;color:#000000;direction:ltr;letter-spacing:0px;line-height:120%;opacity:1&quot;&gt;Digitising Proces&lt;/font&gt;&lt;/div&gt;" tags="Background" id="5">
          <mxCell style="verticalAlign=middle;align=center;overflow=width;vsdxID=4;fillColor=#dae8fc;gradientColor=none;shape=stencil(nZBRDoQgDERP03+WHsHFe5iISyOCQdT19kIaIxq//Jtp3zTpAFaTaUYNUkwx+F6v1EYD+AUpyRkdKCYFqACrzgf9C352LfuxyWRWg1/yhT/nRE5IsZWuZtCSK8CPeI0e/hF+jV7AJM4PO7KWCyr390bSiNtEtQM=);strokeColor=#6c8ebf;spacingTop=-3;spacingBottom=-3;spacingLeft=-3;spacingRight=-3;points=[];labelBackgroundColor=none;rounded=0;html=1;whiteSpace=wrap;" parent="1" vertex="1">
            <mxGeometry x="170" y="490" width="370" height="330" as="geometry" />
          </mxCell>
        </UserObject>
        <UserObject label="&lt;div style=&quot;font-size: 1px&quot;&gt;&lt;font style=&quot;font-size:17.46px;font-family:Helvetica;color:#000000;direction:ltr;letter-spacing:0px;line-height:120%;opacity:1&quot;&gt;&lt;b&gt;ERDA System&lt;/b&gt;&lt;/font&gt;&lt;/div&gt;" tags="Background" id="6">
          <mxCell style="verticalAlign=middle;align=center;overflow=width;vsdxID=5;fillColor=#fff2cc;gradientColor=none;shape=stencil(nZBRDoQgDERP03+WHsHFe5iISyOCQdT19kIaIxq//Jtp3zTpAFaTaUYNUkwx+F6v1EYD+AUpyRkdKCYFqACrzgf9C352LfuxyWRWg1/yhT/nRE5IsZWuZtCSK8CPeI0e/hF+jV7AJM4PO7KWCyr390bSiNtEtQM=);strokeColor=#d6b656;spacingTop=-3;spacingBottom=-3;spacingLeft=-3;spacingRight=-3;points=[];labelBackgroundColor=none;rounded=0;html=1;whiteSpace=wrap;" parent="1" vertex="1">
            <mxGeometry x="590" y="580" width="380" height="240" as="geometry" />
          </mxCell>
        </UserObject>
        <UserObject label="&lt;div style=&quot;font-size: 1px&quot;&gt;&lt;font style=&quot;font-size:17.46px;font-family:Helvetica;color:#000000;direction:ltr;letter-spacing:0px;line-height:120%;opacity:1&quot;&gt;External Publishers&lt;/font&gt;&lt;/div&gt;" tags="Background" id="7">
          <mxCell style="verticalAlign=middle;align=center;overflow=width;vsdxID=6;fillColor=#f8cecc;gradientColor=none;shape=stencil(nZBRDoQgDERP03+WHsHFe5iISyOCQdT19kIaIxq//Jtp3zTpAFaTaUYNUkwx+F6v1EYD+AUpyRkdKCYFqACrzgf9C352LfuxyWRWg1/yhT/nRE5IsZWuZtCSK8CPeI0e/hF+jV7AJM4PO7KWCyr390bSiNtEtQM=);strokeColor=#b85450;spacingTop=-3;spacingBottom=-3;spacingLeft=-3;spacingRight=-3;points=[];labelBackgroundColor=none;rounded=0;html=1;whiteSpace=wrap;" parent="1" vertex="1">
            <mxGeometry x="1030" y="580" width="380" height="240" as="geometry" />
          </mxCell>
        </UserObject>
        <UserObject label="" tags="Background" id="8">
          <mxCell style="vsdxID=710000;fillColor=none;gradientColor=none;strokeColor=none;spacingTop=-3;spacingBottom=-3;spacingLeft=-3;spacingRight=-3;points=[];labelBackgroundColor=none;rounded=0;html=1;whiteSpace=wrap;" parent="1" vertex="1">
            <mxGeometry x="200" y="670" width="120" height="110" as="geometry" />
          </mxCell>
        </UserObject>
        <mxCell id="10" value="&lt;div style=&quot;font-size: 1px&quot;&gt;&lt;font style=&quot;font-size:11.64px;font-family:Helvetica;color:#000000;direction:ltr;letter-spacing:0px;line-height:120%;opacity:1&quot;&gt;Workstation&lt;/font&gt;&lt;/div&gt;" style="verticalAlign=middle;align=center;overflow=width;vsdxID=8;fillColor=#ffffff;gradientColor=none;shape=stencil(nZBLDsIwDERP4y1KHcEFSrkAJ4iIIRYhqdJQPqcnrUEKiFV3npk3sjSg28GZngDVkFM8041tdqC3gMjBUeJcLtAd6PYYE51SvAYrujeFRDU7ZKXTTDQqkw57ftLb26zWYkvvEsfp311SJdGjVjsBPYcKbNRi9KP/wovRL7Ac8x6yFHsvc9b5737Fku119wI=);strokeColor=#000000;spacingTop=-3;spacingBottom=-3;spacingLeft=-3;spacingRight=-3;points=[];labelBackgroundColor=none;rounded=1;html=1;whiteSpace=wrap;" parent="8" vertex="1">
          <mxGeometry width="120" height="110" as="geometry" />
        </mxCell>
        <mxCell id="11" style="vsdxID=9;fillColor=#ffffff;gradientColor=none;shape=stencil(vZXdcsIgEIWfJpdh+JEg19a+B6OoTNPEIbHGty8paFiUtE6nvWPhLHx7sjsp2Ko7qKMuKO56277ps9n2h4K9FJSa5qCt6d2qYOuCrXat1Xvbnpqtj49qVI6r9/ZjvGHweXzMoPjiI4LxV/zqpZuT9Vrijymii6AnMAEP1G+E8BJCWSESUgYGFSGUBLFl/GhtmogPAz5HsCBzhDjBE6jiEDCqIewQhoSEjBwyToqHjAxCfqNeQDXOK6sfK8VTBJLPq1NTpUCiSoyNPKNJK9x8jcxnqYZlPigknfSZZklRpwRy34D0vpyU/Qoq0w7AM+7PzpBbTLO3M3XtR/d2nhtMugS3coIEje9VduNO7dUobyK2V4glkiKUFFqEZu7DQ6kG05W27VVv2gYMUq3sXpfurXJXq3242x91Z62P0Tb+DV222j+hg06znDMPa5FJKRxxCkqp/rWUJ+Gytf4JHOj9pO/dIv1HuS3/f2PrTw==);strokeColor=#0080F0;strokeWidth=2;spacingTop=-3;spacingBottom=-3;spacingLeft=-3;spacingRight=-3;points=[];labelBackgroundColor=#ffffff;rounded=0;html=1;whiteSpace=wrap;" parent="8" vertex="1">
          <mxGeometry x="73" y="19" width="30" height="17" as="geometry" />
        </mxCell>
        <mxCell id="12" style="vsdxID=10;fillColor=#505050;gradientColor=none;shape=stencil(pVjbVtswEPyavO6RtLo+0/Y/OCWUnFLCCdDC33dT27qMYoHLm+PMemdXexl7x1dPd9eP+51RT8+n48/9n8PN892Ov+yMOTzc7U+HZ7na8dcdX90eT/sfp+PLw830+/H6jDxf/Tr+Pj/hdbIziVw8Wxn1Nt2J6t/PbxP6/vBQoZMlDp9AW7uO7plsQ7dMIMpIyrRoR8y1wfeX02ShZxNPys0mGm3Uq5lRTMnOqPlWZApz1K/co+ZbUdMouspgzoUhp4d8K5P5llXkga4jb1q6HMkjXclWbOkW1OWTdhTbk+4MkG+KxJDfmsrMTivV0j3H5Fu6BcM5Vzatky34fBTGjqgWA52P2OuWqIRjGAqhKhfOeVrY50LAQmzJBkUpbatcMcHC9ZQgsQJSGvhK+lPL1ydKpuWbFOnhwYpN0K3/xKQT+NcUoHFkXCg42iCxQuMIyg1PK4Tcf9m/pQiNGyQy3fmPsfUfDWH4ltIw+1IbLnXuE7iPtiTW5NqIkP4atfgPZP3Qf2VTWg2PvxpSb9hqdfDgfcFcLFWrqZ3IgEam0socW6aFwzKdEmkHeZJoWqI16KNpqm2WNHnSsXUvFLGr68PkLvCPVom1ZC8UqQX3IfdNXaQW3KcyIor/8YxwhjzkXpoUm8TlxxT/pqtSQSkG/3m6rPnnrkrr8WMyysLp16OMcyxp21D9gBxo9UOi6Bu89utPl6KJ7jNos47uiWwC+/UQ250oxTBKYAt2S5OsHDZszzJWsiwp6sE0JvmIiaHCR3PILft8ITgeQ1UxtIRzGSoCeoYYNlWF4ctZaUlW+Hkg2aHCMqFTWGhwQRHiJio2RWHJuoZNJDrMwoypUZXKGhRfbTELAz/WkFitW/EiaUb4ntB2g3dUcMdoI1427juElgm9ZtDVgIQIbwUyQSOsOSOaamGyzNnUiddzCcKaLajLndi/pKFB142Vic423rWEBRVQbZctWC3GrETLYjJDXSDTwOBizK2a3TtSMBEE1MkCU95wGFFr7nUvS1R3XrIzNIpXnadYJYsU7EVB2aF/af28y3W2iTCvWXRJrwssjET2eUpm/1vWSgeWi/IZ4/Zwfz99Bcn/r33jaB872Bz4ZrgBOlTG/w1Vq+FD6HKBX3zk1vS1iL/+BQ==);strokeColor=none;spacingTop=-3;spacingBottom=-3;spacingLeft=-3;spacingRight=-3;points=[];labelBackgroundColor=none;rounded=0;html=1;whiteSpace=wrap;" parent="8" vertex="1">
          <mxGeometry x="16" y="38" width="53" height="56" as="geometry" />
        </mxCell>
        <UserObject label="&lt;div style=&quot;font-size: 1px&quot;&gt;&lt;font style=&quot;font-size:11.64px;font-family:Helvetica;color:#000000;direction:ltr;letter-spacing:0px;line-height:120%;opacity:1&quot;&gt;Pipeline&lt;br/&gt;&lt;/font&gt;&lt;font style=&quot;font-size:11.64px;font-family:Helvetica;color:#000000;direction:ltr;letter-spacing:0px;line-height:120%;opacity:1&quot;&gt;&lt;br/&gt;&lt;/font&gt;&lt;font style=&quot;font-size:11.64px;font-family:Helvetica;color:#000000;direction:ltr;letter-spacing:0px;line-height:120%;opacity:1&quot;&gt;(Image processing etc.)&lt;/font&gt;&lt;/div&gt;" tags="Background" id="13">
          <mxCell style="verticalAlign=middle;align=center;overflow=width;vsdxID=11;fillColor=#ffffff;gradientColor=none;shape=stencil(nZBLDsIwDERP4y1KHSEOUMoFOEFEDLEISZWG8jk9aQ1SQKy688y8kaUB3Q7O9ASohpzimW5sswO9BUQOjhLncoHuQLfHmOiU4jVY0b0pJKrZISudZqJRmXTY85Pe3maFa/GleInj9PAusZLoUaudgJ5DBTZqMfrRf+HF6BdYjnkQmYq9lz3r/HfAYsn4unsB);dashed=1;dashPattern=4.00 2.00;strokeColor=#000000;spacingTop=-3;spacingBottom=-3;spacingLeft=-3;spacingRight=-3;points=[];labelBackgroundColor=none;rounded=1;html=1;whiteSpace=wrap;" parent="1" vertex="1">
            <mxGeometry x="380" y="555" width="120" height="115" as="geometry" />
          </mxCell>
        </UserObject>
        <UserObject label="&lt;div style=&quot;font-size: 1px&quot;&gt;&lt;font style=&quot;font-size:11.64px;font-family:Helvetica;color:#000000;direction:ltr;letter-spacing:0px;line-height:120%;opacity:1&quot;&gt;Specify&lt;/font&gt;&lt;/div&gt;" tags="Background" id="14">
          <mxCell style="verticalAlign=middle;align=center;overflow=width;vsdxID=13;fillColor=#ffffff;gradientColor=none;shape=stencil(nZBLDsIwDERP433qHKGUC3CCiBhiEZLKDd/Tk9YgBcSqO8/MG1kasP0U3EiAZiqST3RjXwLYDSByCiRc6gV2ANsfstBR8iV51aOrJJrFIa+dbqbRONnv+ElvD9XU1jlf5293zYxGj1ZtFYycGrAzq9GP/guvRr/Aeixr6E4co47Z5r/rVUuXt8ML);strokeColor=#000000;spacingTop=-3;spacingBottom=-3;spacingLeft=-3;spacingRight=-3;points=[];labelBackgroundColor=none;rounded=1;html=1;whiteSpace=wrap;" parent="1" vertex="1">
            <mxGeometry x="354" y="246" width="120" height="80" as="geometry" />
          </mxCell>
        </UserObject>
        <UserObject label="&lt;div style=&quot;font-size: 1px&quot;&gt;&lt;font style=&quot;font-size:11.64px;font-family:Helvetica;color:#000000;direction:ltr;letter-spacing:0px;line-height:120%;opacity:1&quot;&gt;Specify Attachment server&lt;/font&gt;&lt;/div&gt;" tags="Background" id="15">
          <mxCell style="verticalAlign=middle;align=center;overflow=width;vsdxID=14;fillColor=#ffffff;gradientColor=none;shape=stencil(nZBRDoQgDERP03+WHsHFe5iISyOCQdT19kIaIxq//Jtp3zTpAFaTaUYNUkwx+F6v1EYD+AUpyRkdKCYFqACrzgf9C352LfuxyWRWg1/yhT/nRE5IsZWuZtCSK8CPeI0e/hF+jV7AJM4PO7KWCyr390bSiNtEtQM=);strokeColor=#000000;spacingTop=-3;spacingBottom=-3;spacingLeft=-3;spacingRight=-3;points=[];labelBackgroundColor=none;rounded=0;html=1;whiteSpace=wrap;" parent="1" vertex="1">
            <mxGeometry x="354" y="350" width="120" height="60" as="geometry" />
          </mxCell>
        </UserObject>
        <UserObject label="" tags="Background" id="16">
          <mxCell style="vsdxID=15;fillColor=#F8552D;gradientColor=none;shape=stencil(hZBNDoQgDIVP0z1Dj+DgPUxEaUQwiD9z+4E0RnShu/fary9tAavZNJMGKeYY/KA3aqMB/IKU5IwOFJMCVIBV54Pug19cy35qMpnV6NecsPOcyBNS/EpXM2jJFeBHXNHD1++pN/Q594ImcS7ekbV8d9m/H5pK/CRUfw==);strokeColor=#FF3019;strokeWidth=3;spacingTop=-3;spacingBottom=-3;spacingLeft=-3;spacingRight=-3;points=[];labelBackgroundColor=none;rounded=0;html=1;whiteSpace=wrap;" parent="1" vertex="1">
            <mxGeometry x="337" y="340" width="154" height="80" as="geometry" />
          </mxCell>
        </UserObject>
        <UserObject label="&lt;div style=&quot;font-size: 1px&quot;&gt;&lt;font style=&quot;font-size:15.52px;font-family:Helvetica;color:#000000;direction:ltr;letter-spacing:0px;line-height:120%;opacity:1&quot;&gt;Researcher&lt;/font&gt;&lt;/div&gt;" tags="Background" id="17">
          <mxCell style="verticalAlign=middle;align=center;overflow=width;vsdxID=17;fillColor=#82BD82;gradientColor=none;shape=stencil(nVZbctswDDyNfjEkIL6+0/QemcaJNXXtjOK0zu1DDR8iQYt2+kfDCy6eSw308L5/etsNKN7P8+n37t/0fN4P9GNAnI773Tyd/Wmgx4EeXk7z7nU+fRyfw++3pwW5nP6c/i43XIKfA6kWJxSf0aBgDJafAf/rYw4OMgCkALTRJZoMgsNgumAwoQVpIiqa1Agucl0omkSEEIdskCsDxMjLayOTHkFLRm5AUE1uRI468Wtv0j1+i6Cx5tcWUNf8ToDEmt9KIMbvUVbV/E3xD9PxW82qm4sGjKwc0PSyK/Gp22NOOGVHBSqaRlA3OpsRG9QaAV1NXVyKec4yCNv4qEXRPWmblptcnrM8VC356FL5t/N2N9aJ2pqX12LbGWxDpBZ1NXN/WIXgZTocgo7k/7dUwhBQGui8T7LbTx8dq6lfVM0XVYHki4pgdZ2W30pt67SUBNMtq1/urD+prAaUYwOlwRIrqwVh2EAVqPsGqnBIe4Q500KlbM0t+rMkunOkgAmTqOmQQGq2PEVQ1KLuyrV0kGsJ2fJ46bIjWx6TRTqRLyPNyJdGd/mlXxaWuNLJJ/OvWpLojWp2twAlPfYLRT32wiVanAXHklegeOEFa7UfGPYUJcj1h8AXPc3OVTiP040wjnWgawzp1VorkuIsk2meqPurVPqkh1TmDBK/1Znsc9UHPiOlFKUZYVrUqNxNfRNVLTuFz0X7PrTb0P+Gis3EmbT7A/8m9KbwPUmPXw==);strokeColor=#82b366;spacingTop=-3;spacingBottom=-3;spacingLeft=-3;spacingRight=-3;points=[];labelBackgroundColor=none;rounded=0;html=1;whiteSpace=wrap;" parent="1" vertex="1">
            <mxGeometry x="51" y="247" width="78" height="78" as="geometry" />
          </mxCell>
        </UserObject>
        <UserObject label="&lt;div style=&quot;font-size: 1px&quot;&gt;&lt;font style=&quot;font-size:15.52px;font-family:Helvetica;color:#232f3e;direction:ltr;letter-spacing:0px;line-height:120%;opacity:1&quot;&gt;Digitiser&lt;/font&gt;&lt;/div&gt;" tags="Background" id="18">
          <mxCell style="verticalAlign=middle;align=center;overflow=width;vsdxID=19;fillColor=#262DFC;gradientColor=none;shape=stencil(nVZbctswDDyNfjEkIL6+0/QemcaJNXXtjOK0zu1DDR8iQYt2+kfDCy6eSw308L5/etsNKN7P8+n37t/0fN4P9GNAnI773Tyd/Wmgx4EeXk7z7nU+fRyfw++3pwW5nP6c/i43XIKfA6kWJxSf0aBgDJafAf/rYw4OMgCkALTRJZoMgsNgumAwoQVpIiqa1Agucl0omkSEEIdskCsDxMjLayOTHkFLRm5AUE1uRI468Wtv0j1+i6Cx5tcWUNf8ToDEmt9KIMbvUVbV/E3xD9PxW82qm4sGjKwc0PSyK/Gp22NOOGVHBSqaRlA3OpsRG9QaAV1NXVyKec4yCNv4qEXRPWmblptcnrM8VC356FL5t/N2N9aJ2pqX12LbGWxDpBZ1NXN/WIXgZTocgo7k/7dUwhBQGui8T7LbTx8dq6lfVM0XVYHki4pgdZ2W30pt67SUBNMtq1/urD+prAaUYwOlwRIrqwVh2EAVqPsGqnBIe4Q500KlbM0t+rMkunOkgAmTqOmQQGq2PEVQ1KLuyrV0kGsJ2fJ46bIjWx6TRTqRLyPNyJdGd/mlXxaWuNLJJ/OvWpLojWp2twAlPfYLRT32wiVanAXHklegeOEFa7UfGPYUJcj1h8AXPc3OVTiP040wjnWgawzp1VorkuIsk2meqPurVPqkh1TmDBK/1Znsc9UHPiOlFKUZYVrUqNxNfRNVLTuFz0X7PrTb0P+Gis3EmbT7A/8m9KbwPUmPXw==);strokeColor=none;spacingTop=-3;spacingBottom=-3;spacingLeft=-3;spacingRight=-3;points=[];labelBackgroundColor=none;rounded=0;html=1;whiteSpace=wrap;" parent="1" vertex="1">
            <mxGeometry x="40" y="686" width="78" height="78" as="geometry" />
          </mxCell>
        </UserObject>
        <UserObject label="&lt;div style=&quot;font-size: 1px&quot;&gt;&lt;font style=&quot;font-size:11.64px;font-family:Helvetica;color:#000000;direction:ltr;letter-spacing:0px;line-height:120%;opacity:1&quot;&gt;Docker Swarm&lt;/font&gt;&lt;/div&gt;" tags="Background" id="19">
          <mxCell style="verticalAlign=middle;align=center;overflow=width;vsdxID=20;fillColor=#ffffff;gradientColor=none;shape=stencil(nZBRDoQgDERP03+WHsHFe5iISyOCQdT19kIaIxq//Jtp3zTpAFaTaUYNUkwx+F6v1EYD+AUpyRkdKCYFqACrzgf9C352LfuxyWRWg1/yhT/nRE5IsZWuZtCSK8CPeI0e/hF+jV7AJM4PO7KWCyr390bSiNtEtQM=);strokeColor=#000000;spacingTop=-3;spacingBottom=-3;spacingLeft=-3;spacingRight=-3;points=[];labelBackgroundColor=none;rounded=0;html=1;whiteSpace=wrap;" parent="1" vertex="1">
            <mxGeometry x="775" y="215" width="340" height="280" as="geometry" />
          </mxCell>
        </UserObject>
        <UserObject label="" tags="Background" id="20">
          <mxCell style="vsdxID=2110000;fillColor=none;gradientColor=none;strokeColor=none;spacingTop=-3;spacingBottom=-3;spacingLeft=-3;spacingRight=-3;points=[];labelBackgroundColor=none;rounded=0;html=1;whiteSpace=wrap;" parent="1" vertex="1">
            <mxGeometry as="geometry" />
          </mxCell>
        </UserObject>
        <mxCell id="21" value="&lt;div style=&quot;font-size: 1px&quot;&gt;&lt;font style=&quot;font-size:10.67px;font-family:Helvetica;color:#000000;direction:ltr;letter-spacing:0px;line-height:120%;opacity:1&quot;&gt;HTTPS&lt;/font&gt;&lt;/div&gt;" style="verticalAlign=middle;align=center;overflow=width;vsdxID=24;fillColor=none;gradientColor=none;strokeColor=none;spacingTop=-3;spacingBottom=-3;spacingLeft=-3;spacingRight=-3;points=[];labelBackgroundColor=#ffffff;rounded=0;html=1;whiteSpace=wrap;" parent="20" vertex="1">
          <mxGeometry y="-1" as="geometry" />
        </mxCell>
        <UserObject label="" tags="Background" id="58">
          <mxCell style="vsdxID=21;edgeStyle=none;startArrow=none;endArrow=classic;startSize=5;endSize=5;strokeColor=#000000;spacingTop=0;spacingBottom=0;spacingLeft=0;spacingRight=0;verticalAlign=middle;html=1;labelBackgroundColor=#ffffff;rounded=0;exitX=1;exitY=0.75;exitDx=0;exitDy=0;exitPerimeter=0;entryX=0;entryY=0.25;entryDx=0;entryDy=0;entryPerimeter=0;" parent="20" source="22" target="32" edge="1">
            <mxGeometry relative="1" as="geometry">
              <mxPoint x="-33" y="117" as="offset" />
              <Array as="points" />
            </mxGeometry>
          </mxCell>
        </UserObject>
        <UserObject label="&lt;div style=&quot;font-size: 1px&quot;&gt;&lt;font style=&quot;font-size:11.64px;font-family:Helvetica;color:#000000;direction:ltr;letter-spacing:0px;line-height:120%;opacity:1&quot;&gt;DaSSCo Asset Service&lt;/font&gt;&lt;/div&gt;" tags="Background" id="22">
          <mxCell style="verticalAlign=middle;align=center;overflow=width;vsdxID=22;fillColor=#ffffff;gradientColor=none;shape=stencil(nZBLDsIwDERP433qHKGUC3CCiBhiEZLKDd/Tk9YgBcSqO8/MG1kasP0U3EiAZiqST3RjXwLYDSByCiRc6gV2ANsfstBR8iV51aOrJJrFIa+dbqbRONnv+ElvD9XU1jlf5293zYxGj1ZtFYycGrAzq9GP/guvRr/Aeixr6E4co47Z5r/rVUuXt8ML);strokeColor=#000000;spacingTop=-3;spacingBottom=-3;spacingLeft=-3;spacingRight=-3;points=[];labelBackgroundColor=none;rounded=1;html=1;whiteSpace=wrap;" parent="1" vertex="1">
            <mxGeometry x="799" y="246" width="120" height="80" as="geometry" />
          </mxCell>
        </UserObject>
        <UserObject label="" tags="Background" id="23">
          <mxCell style="vsdxID=2510000;fillColor=none;gradientColor=none;strokeColor=none;spacingTop=-3;spacingBottom=-3;spacingLeft=-3;spacingRight=-3;points=[];labelBackgroundColor=none;rounded=0;html=1;whiteSpace=wrap;" parent="1" vertex="1">
            <mxGeometry as="geometry" />
          </mxCell>
        </UserObject>
        <mxCell id="24" value="&lt;div style=&quot;font-size: 1px&quot;&gt;&lt;font style=&quot;font-size:10.67px;font-family:Helvetica;color:#000000;direction:ltr;letter-spacing:0px;line-height:120%;opacity:1&quot;&gt;HTTPS&lt;/font&gt;&lt;/div&gt;" style="verticalAlign=middle;align=center;overflow=width;vsdxID=27;fillColor=none;gradientColor=none;strokeColor=none;spacingTop=-3;spacingBottom=-3;spacingLeft=-3;spacingRight=-3;points=[];labelBackgroundColor=#ffffff;rounded=0;html=1;whiteSpace=wrap;" parent="23" vertex="1">
          <mxGeometry as="geometry" />
        </mxCell>
        <UserObject label="" tags="Background" id="59">
          <mxCell style="vsdxID=25;edgeStyle=none;startArrow=none;endArrow=classic;startSize=5;endSize=5;strokeColor=#000000;spacingTop=0;spacingBottom=0;spacingLeft=0;spacingRight=0;verticalAlign=middle;html=1;labelBackgroundColor=#ffffff;rounded=0;exitX=1;exitY=0.25;exitDx=0;exitDy=0;exitPerimeter=0;entryX=0;entryY=0.75;entryDx=0;entryDy=0;entryPerimeter=0;" parent="23" source="31" target="32" edge="1">
            <mxGeometry relative="1" as="geometry">
              <mxPoint x="-32" y="110" as="offset" />
              <Array as="points" />
            </mxGeometry>
          </mxCell>
        </UserObject>
        <UserObject label="" tags="Background" id="25">
          <mxCell style="vsdxID=2810000;fillColor=none;gradientColor=none;strokeColor=none;spacingTop=-3;spacingBottom=-3;spacingLeft=-3;spacingRight=-3;points=[];labelBackgroundColor=none;rounded=0;html=1;whiteSpace=wrap;" parent="1" vertex="1">
            <mxGeometry as="geometry" />
          </mxCell>
        </UserObject>
        <mxCell id="26" value="&lt;div style=&quot;font-size: 1px&quot;&gt;&lt;font style=&quot;font-size:10.67px;font-family:Helvetica;color:#000000;direction:ltr;letter-spacing:0px;line-height:120%;opacity:1&quot;&gt;HTTPS&lt;/font&gt;&lt;/div&gt;" style="verticalAlign=middle;align=center;overflow=width;vsdxID=29;fillColor=none;gradientColor=none;strokeColor=none;spacingTop=-3;spacingBottom=-3;spacingLeft=-3;spacingRight=-3;points=[];labelBackgroundColor=#ffffff;rounded=0;html=1;whiteSpace=wrap;" parent="25" vertex="1">
          <mxGeometry as="geometry" />
        </mxCell>
        <UserObject label="" tags="Background" id="60">
          <mxCell style="vsdxID=28;edgeStyle=none;startArrow=classic;endArrow=classic;startSize=5;endSize=5;strokeColor=#000000;spacingTop=0;spacingBottom=0;spacingLeft=0;spacingRight=0;verticalAlign=middle;html=1;labelBackgroundColor=#ffffff;rounded=0;exitX=0.5;exitY=0;exitDx=0;exitDy=0;exitPerimeter=0;entryX=0.5;entryY=1;entryDx=0;entryDy=0;entryPerimeter=0;" parent="25" source="31" target="22" edge="1">
            <mxGeometry relative="1" as="geometry">
              <mxPoint y="126" as="offset" />
              <Array as="points" />
            </mxGeometry>
          </mxCell>
        </UserObject>
        <UserObject label="" tags="Background" id="27">
          <mxCell style="vsdxID=3010000;fillColor=none;gradientColor=none;strokeColor=none;spacingTop=-3;spacingBottom=-3;spacingLeft=-3;spacingRight=-3;points=[];labelBackgroundColor=none;rounded=0;html=1;whiteSpace=wrap;" parent="1" vertex="1">
            <mxGeometry as="geometry" />
          </mxCell>
        </UserObject>
        <mxCell id="28" value="&lt;div style=&quot;font-size: 1px&quot;&gt;&lt;font style=&quot;font-size:10.67px;font-family:Helvetica;color:#000000;direction:ltr;letter-spacing:0px;line-height:120%;opacity:1&quot;&gt;SFTP&lt;/font&gt;&lt;/div&gt;" style="verticalAlign=middle;align=center;overflow=width;vsdxID=32;fillColor=none;gradientColor=none;strokeColor=none;spacingTop=-3;spacingBottom=-3;spacingLeft=-3;spacingRight=-3;points=[];labelBackgroundColor=#ffffff;rounded=0;html=1;whiteSpace=wrap;" parent="27" vertex="1">
          <mxGeometry y="11" as="geometry" />
        </mxCell>
        <UserObject label="" tags="Background" id="61">
          <mxCell style="vsdxID=30;edgeStyle=none;startArrow=none;endArrow=classic;startSize=5;endSize=5;strokeColor=#000000;spacingTop=0;spacingBottom=0;spacingLeft=0;spacingRight=0;verticalAlign=middle;html=1;labelBackgroundColor=#ffffff;rounded=0;exitX=0.25;exitY=1;exitDx=0;exitDy=0;exitPerimeter=0;entryX=0.25;entryY=0;entryDx=0;entryDy=0;entryPerimeter=0;" parent="27" source="31" target="33" edge="1">
            <mxGeometry relative="1" as="geometry">
              <mxPoint x="94" y="218" as="offset" />
              <Array as="points">
                <mxPoint x="705" y="569.82" />
              </Array>
            </mxGeometry>
          </mxCell>
        </UserObject>
        <UserObject label="" tags="Background" id="29">
          <mxCell style="vsdxID=3310000;fillColor=none;gradientColor=none;strokeColor=none;spacingTop=-3;spacingBottom=-3;spacingLeft=-3;spacingRight=-3;points=[];labelBackgroundColor=none;rounded=0;html=1;whiteSpace=wrap;" parent="1" vertex="1">
            <mxGeometry as="geometry" />
          </mxCell>
        </UserObject>
        <mxCell id="30" value="&lt;div style=&quot;font-size: 1px&quot;&gt;&lt;font style=&quot;font-size:10.67px;font-family:Helvetica;color:#000000;direction:ltr;letter-spacing:0px;line-height:120%;opacity:1&quot;&gt;HTTPS&lt;/font&gt;&lt;/div&gt;" style="verticalAlign=middle;align=center;overflow=width;vsdxID=35;fillColor=none;gradientColor=none;strokeColor=none;spacingTop=-3;spacingBottom=-3;spacingLeft=-3;spacingRight=-3;points=[];labelBackgroundColor=#ffffff;rounded=0;html=1;whiteSpace=wrap;" parent="29" vertex="1">
          <mxGeometry x="3" y="4" as="geometry" />
        </mxCell>
        <UserObject label="" tags="Background" id="62">
          <mxCell style="vsdxID=33;edgeStyle=none;startArrow=classic;endArrow=none;startSize=5;endSize=5;strokeColor=#000000;spacingTop=0;spacingBottom=0;spacingLeft=0;spacingRight=0;verticalAlign=middle;html=1;labelBackgroundColor=#ffffff;rounded=0;exitX=0.75;exitY=1;exitDx=0;exitDy=0;exitPerimeter=0;entryX=0;entryY=0;entryDx=0;entryDy=0;entryPerimeter=0;" parent="29" source="31" target="37" edge="1">
            <mxGeometry relative="1" as="geometry">
              <mxPoint x="-136" y="203" as="offset" />
              <Array as="points" />
            </mxGeometry>
          </mxCell>
        </UserObject>
        <UserObject label="&lt;div style=&quot;font-size: 1px&quot;&gt;&lt;font style=&quot;font-size:11.64px;font-family:Helvetica;color:#000000;direction:ltr;letter-spacing:0px;line-height:120%;opacity:1&quot;&gt;DaSSCo File Proxy&lt;/font&gt;&lt;/div&gt;" tags="Background" id="31">
          <mxCell style="verticalAlign=middle;align=center;overflow=width;vsdxID=26;fillColor=#ffffff;gradientColor=none;shape=stencil(nZBLDsIwDERP433qHKGUC3CCiBhiEZLKDd/Tk9YgBcSqO8/MG1kasP0U3EiAZiqST3RjXwLYDSByCiRc6gV2ANsfstBR8iV51aOrJJrFIa+dbqbRONnv+ElvD9XU1jlf5293zYxGj1ZtFYycGrAzq9GP/guvRr/Aeixr6E4co47Z5r/rVUuXt8ML);strokeColor=#000000;spacingTop=-3;spacingBottom=-3;spacingLeft=-3;spacingRight=-3;points=[];labelBackgroundColor=none;rounded=1;html=1;whiteSpace=wrap;" parent="1" vertex="1">
            <mxGeometry x="799" y="375" width="120" height="80" as="geometry" />
          </mxCell>
        </UserObject>
        <UserObject label="&lt;div style=&quot;font-size: 1px&quot;&gt;&lt;font style=&quot;font-size:11.64px;font-family:Helvetica;color:#000000;direction:ltr;letter-spacing:0px;line-height:120%;opacity:1&quot;&gt;DaSSCo Keycloak&lt;/font&gt;&lt;/div&gt;" tags="Background" id="32">
          <mxCell style="verticalAlign=middle;align=center;overflow=width;vsdxID=23;fillColor=#ffffff;gradientColor=none;shape=stencil(nZBLDsIwDERP433qHKGUC3CCiBhiEZLKDd/Tk9YgBcSqO8/MG1kasP0U3EiAZiqST3RjXwLYDSByCiRc6gV2ANsfstBR8iV51aOrJJrFIa+dbqbRONnv+ElvD9XU1jlf5293zYxGj1ZtFYycGrAzq9GP/guvRr/Aeixr6E4co47Z5r/rVUuXt8ML);strokeColor=#000000;spacingTop=-3;spacingBottom=-3;spacingLeft=-3;spacingRight=-3;points=[];labelBackgroundColor=none;rounded=1;html=1;whiteSpace=wrap;" parent="1" vertex="1">
            <mxGeometry x="983" y="318" width="120" height="80" as="geometry" />
          </mxCell>
        </UserObject>
        <UserObject label="&lt;div style=&quot;font-size: 1px&quot;&gt;&lt;font style=&quot;font-size:11.64px;font-family:Helvetica;color:#000000;direction:ltr;letter-spacing:0px;line-height:120%;opacity:1&quot;&gt;ERDA File System&lt;/font&gt;&lt;/div&gt;" tags="Background" id="33">
          <mxCell style="verticalAlign=middle;align=center;overflow=width;vsdxID=31;fillColor=#ffffff;gradientColor=none;shape=stencil(nZBLDsIwDERP433qHKGUC3CCiBhiEZLKDd/Tk9YgBcSqO8/MG1kasP0U3EiAZiqST3RjXwLYDSByCiRc6gV2ANsfstBR8iV51aOrJJrFIa+dbqbRONnv+ElvD9XU1jlf5293zYxGj1ZtFYycGrAzq9GP/guvRr/Aeixr6E4co47Z5r/rVUuXt8ML);strokeColor=#000000;spacingTop=-3;spacingBottom=-3;spacingLeft=-3;spacingRight=-3;points=[];labelBackgroundColor=none;rounded=1;html=1;whiteSpace=wrap;" parent="1" vertex="1">
            <mxGeometry x="675" y="660" width="120" height="80" as="geometry" />
          </mxCell>
        </UserObject>
        <UserObject label="&lt;div style=&quot;font-size: 1px&quot;&gt;&lt;font style=&quot;font-size:11.64px;font-family:Helvetica;color:#000000;direction:ltr;letter-spacing:0px;line-height:120%;opacity:1&quot;&gt;External Publisher&lt;/font&gt;&lt;/div&gt;" tags="Background" id="34">
          <mxCell style="verticalAlign=middle;align=center;overflow=width;vsdxID=36;fillColor=#ffffff;gradientColor=none;shape=stencil(nZBLDsIwDERP433qHKGUC3CCiBhiEZLKDd/Tk9YgBcSqO8/MG1kasP0U3EiAZiqST3RjXwLYDSByCiRc6gV2ANsfstBR8iV51aOrJJrFIa+dbqbRONnv+ElvD9XU1jlf5293zYxGj1ZtFYycGrAzq9GP/guvRr/Aeixr6E4co47Z5r/rVUuXt8ML);strokeColor=#000000;spacingTop=-3;spacingBottom=-3;spacingLeft=-3;spacingRight=-3;points=[];labelBackgroundColor=none;rounded=1;html=1;whiteSpace=wrap;" parent="1" vertex="1">
            <mxGeometry x="1190" y="690" width="120" height="80" as="geometry" />
          </mxCell>
        </UserObject>
        <UserObject label="&lt;div style=&quot;font-size: 1px&quot;&gt;&lt;font style=&quot;font-size:11.64px;font-family:Helvetica;color:#000000;direction:ltr;letter-spacing:0px;line-height:120%;opacity:1&quot;&gt;External Publisher&lt;/font&gt;&lt;/div&gt;" tags="Background" id="35">
          <mxCell style="verticalAlign=middle;align=center;overflow=width;vsdxID=37;fillColor=#ffffff;gradientColor=none;shape=stencil(nZBLDsIwDERP433qHKGUC3CCiBhiEZLKDd/Tk9YgBcSqO8/MG1kasP0U3EiAZiqST3RjXwLYDSByCiRc6gV2ANsfstBR8iV51aOrJJrFIa+dbqbRONnv+ElvD9XU1jlf5293zYxGj1ZtFYycGrAzq9GP/guvRr/Aeixr6E4co47Z5r/rVUuXt8ML);strokeColor=#000000;spacingTop=-3;spacingBottom=-3;spacingLeft=-3;spacingRight=-3;points=[];labelBackgroundColor=none;rounded=1;html=1;whiteSpace=wrap;" parent="1" vertex="1">
            <mxGeometry x="1180" y="680" width="120" height="80" as="geometry" />
          </mxCell>
        </UserObject>
        <UserObject label="&lt;div style=&quot;font-size: 1px&quot;&gt;&lt;font style=&quot;font-size:11.64px;font-family:Helvetica;color:#000000;direction:ltr;letter-spacing:0px;line-height:120%;opacity:1&quot;&gt;External Publisher&lt;/font&gt;&lt;/div&gt;" tags="Background" id="36">
          <mxCell style="verticalAlign=middle;align=center;overflow=width;vsdxID=38;fillColor=#ffffff;gradientColor=none;shape=stencil(nZBLDsIwDERP433qHKGUC3CCiBhiEZLKDd/Tk9YgBcSqO8/MG1kasP0U3EiAZiqST3RjXwLYDSByCiRc6gV2ANsfstBR8iV51aOrJJrFIa+dbqbRONnv+ElvD9XU1jlf5293zYxGj1ZtFYycGrAzq9GP/guvRr/Aeixr6E4co47Z5r/rVUuXt8ML);strokeColor=#000000;spacingTop=-3;spacingBottom=-3;spacingLeft=-3;spacingRight=-3;points=[];labelBackgroundColor=none;rounded=1;html=1;whiteSpace=wrap;" parent="1" vertex="1">
            <mxGeometry x="1170" y="670" width="120" height="80" as="geometry" />
          </mxCell>
        </UserObject>
        <UserObject label="&lt;div style=&quot;font-size: 1px&quot;&gt;&lt;font style=&quot;font-size:11.64px;font-family:Helvetica;color:#000000;direction:ltr;letter-spacing:0px;line-height:120%;opacity:1&quot;&gt;External Publisher&lt;/font&gt;&lt;/div&gt;" tags="Background" id="37">
          <mxCell style="verticalAlign=middle;align=center;overflow=width;vsdxID=34;fillColor=#ffffff;gradientColor=none;shape=stencil(nZBLDsIwDERP433qHKGUC3CCiBhiEZLKDd/Tk9YgBcSqO8/MG1kasP0U3EiAZiqST3RjXwLYDSByCiRc6gV2ANsfstBR8iV51aOrJJrFIa+dbqbRONnv+ElvD9XU1jlf5293zYxGj1ZtFYycGrAzq9GP/guvRr/Aeixr6E4co47Z5r/rVUuXt8ML);strokeColor=#000000;spacingTop=-3;spacingBottom=-3;spacingLeft=-3;spacingRight=-3;points=[];labelBackgroundColor=none;rounded=1;html=1;whiteSpace=wrap;" parent="1" vertex="1">
            <mxGeometry x="1160" y="660" width="120" height="80" as="geometry" />
          </mxCell>
        </UserObject>
        <UserObject label="&lt;div style=&quot;font-size: 1px&quot;&gt;&lt;font style=&quot;font-size:11.64px;font-family:Helvetica;color:#000000;direction:ltr;letter-spacing:0px;line-height:120%;opacity:1&quot;&gt;Linux Server&lt;br/&gt;&lt;/font&gt;&lt;font style=&quot;font-size:11.64px;font-family:Helvetica;color:#000000;direction:ltr;letter-spacing:0px;line-height:120%;opacity:1&quot;&gt;( With persistent volume )&lt;/font&gt;&lt;/div&gt;" tags="Background" id="38">
          <mxCell style="verticalAlign=middle;align=center;overflow=width;vsdxID=39;fillColor=#ffffff;gradientColor=none;shape=stencil(nZBRDoQgDERP03+WHsHFe5iISyOCQdT19kIaIxq//Jtp3zTpAFaTaUYNUkwx+F6v1EYD+AUpyRkdKCYFqACrzgf9C352LfuxyWRWg1/yhT/nRE5IsZWuZtCSK8CPeI0e/hF+jV7AJM4PO7KWCyr390bSiNtEtQM=);strokeColor=#000000;spacingTop=-3;spacingBottom=-3;spacingLeft=-3;spacingRight=-3;points=[];labelBackgroundColor=none;rounded=0;html=1;whiteSpace=wrap;" parent="1" vertex="1">
            <mxGeometry x="1145" y="215" width="210" height="280" as="geometry" />
          </mxCell>
        </UserObject>
        <UserObject label="&lt;div style=&quot;font-size: 1px&quot;&gt;&lt;font style=&quot;font-size:11.64px;font-family:Helvetica;color:#000000;direction:ltr;letter-spacing:0px;line-height:120%;opacity:1&quot;&gt;Apache Age&lt;/font&gt;&lt;/div&gt;" tags="Background" id="39">
          <mxCell style="verticalAlign=middle;align=center;overflow=width;vsdxID=40;fillColor=#ffffff;gradientColor=none;shape=stencil(jZTRdoMgDIafhtscSCrqdde+R89qJ2dOe6jd3NtPhxXDkO4uhD/88QsiaH+rT9dKoLz1tnuvvsy5rwW9CETT1pU1/RgJOgjaXzpbvdnu3p7d+nqalFP00X1OJwyuTk4VKL/dSiFkv4mj077erRMrrp6XGWiXGNAlEIHKWYOsZKC55HEErbc37DQBam4puWGeQVlwQwWE3LPIgDS3JdA65VzuICfurEEqbq6k5NYlqIJbewnFCTemXU3Dy+fO8/Q8vN73vQsI5aBVQEg+GcpDsOG6nnLYyMDHvpDxfREXUPxLOZf0LR0Df70vpmnc37Hsb939kPaz2/+Htir/QRuzNGxMekZYLwfGUa+aiqNO4gvQjUH4kowp9wrR4Qc=);strokeColor=#000000;spacingTop=-3;spacingBottom=-3;spacingLeft=-3;spacingRight=-3;points=[];labelBackgroundColor=none;rounded=0;html=1;whiteSpace=wrap;" parent="1" vertex="1">
            <mxGeometry x="1204" y="298" width="115" height="120" as="geometry" />
          </mxCell>
        </UserObject>
        <UserObject label="" tags="Background" id="40">
          <mxCell style="vsdxID=4110000;fillColor=none;gradientColor=none;strokeColor=none;spacingTop=-3;spacingBottom=-3;spacingLeft=-3;spacingRight=-3;points=[];labelBackgroundColor=none;rounded=0;html=1;whiteSpace=wrap;" parent="1" vertex="1">
            <mxGeometry as="geometry" />
          </mxCell>
        </UserObject>
        <mxCell id="41" value="&lt;div style=&quot;font-size: 1px&quot;&gt;&lt;font style=&quot;font-size:10.67px;font-family:Helvetica;color:#000000;direction:ltr;letter-spacing:0px;line-height:120%;opacity:1&quot;&gt;TCP&lt;/font&gt;&lt;/div&gt;" style="verticalAlign=middle;align=center;overflow=width;vsdxID=42;fillColor=none;gradientColor=none;strokeColor=none;spacingTop=-3;spacingBottom=-3;spacingLeft=-3;spacingRight=-3;points=[];labelBackgroundColor=#ffffff;rounded=0;html=1;whiteSpace=wrap;" parent="40" vertex="1">
          <mxGeometry x="118" y="-10" as="geometry" />
        </mxCell>
        <UserObject label="" tags="Background" id="63">
          <mxCell style="vsdxID=41;edgeStyle=none;startArrow=none;endArrow=classic;startSize=5;endSize=5;strokeColor=#000000;spacingTop=0;spacingBottom=0;spacingLeft=0;spacingRight=0;verticalAlign=middle;html=1;labelBackgroundColor=#ffffff;rounded=0;exitX=1;exitY=0.5;exitDx=0;exitDy=0;exitPerimeter=0;entryX=0;entryY=0.875;entryDx=0;entryDy=0;entryPerimeter=0;" parent="40" source="31" target="39" edge="1">
            <mxGeometry relative="1" as="geometry">
              <mxPoint x="-143" y="107" as="offset" />
              <Array as="points" />
            </mxGeometry>
          </mxCell>
        </UserObject>
        <UserObject label="" tags="Background" id="42">
          <mxCell style="vsdxID=4310000;fillColor=none;gradientColor=none;strokeColor=none;spacingTop=-3;spacingBottom=-3;spacingLeft=-3;spacingRight=-3;points=[];labelBackgroundColor=none;rounded=0;html=1;whiteSpace=wrap;" parent="1" vertex="1">
            <mxGeometry as="geometry" />
          </mxCell>
        </UserObject>
        <mxCell id="43" value="&lt;div style=&quot;font-size: 1px&quot;&gt;&lt;font style=&quot;font-size:10.67px;font-family:Helvetica;color:#000000;direction:ltr;letter-spacing:0px;line-height:120%;opacity:1&quot;&gt;TCP&lt;/font&gt;&lt;/div&gt;" style="verticalAlign=middle;align=center;overflow=width;vsdxID=44;fillColor=none;gradientColor=none;strokeColor=none;spacingTop=-3;spacingBottom=-3;spacingLeft=-3;spacingRight=-3;points=[];labelBackgroundColor=#ffffff;rounded=0;html=1;whiteSpace=wrap;" parent="42" vertex="1">
          <mxGeometry x="93" y="10" as="geometry" />
        </mxCell>
        <UserObject label="" tags="Background" id="64">
          <mxCell style="vsdxID=43;edgeStyle=none;startArrow=none;endArrow=classic;startSize=5;endSize=5;strokeColor=#000000;spacingTop=0;spacingBottom=0;spacingLeft=0;spacingRight=0;verticalAlign=middle;html=1;labelBackgroundColor=#ffffff;rounded=0;exitX=1;exitY=0.5;exitDx=0;exitDy=0;exitPerimeter=0;entryX=0;entryY=0.225;entryDx=0;entryDy=0;entryPerimeter=0;" parent="42" source="22" target="39" edge="1">
            <mxGeometry relative="1" as="geometry">
              <mxPoint x="-143" y="121" as="offset" />
              <Array as="points" />
            </mxGeometry>
          </mxCell>
        </UserObject>
        <UserObject label="" tags="Background" id="44">
          <mxCell style="vsdxID=4510000;fillColor=none;gradientColor=none;strokeColor=none;spacingTop=-3;spacingBottom=-3;spacingLeft=-3;spacingRight=-3;points=[];labelBackgroundColor=none;rounded=0;html=1;whiteSpace=wrap;" parent="1" vertex="1">
            <mxGeometry as="geometry" />
          </mxCell>
        </UserObject>
        <mxCell id="45" value="&lt;div style=&quot;font-size: 1px&quot;&gt;&lt;font style=&quot;font-size:10.67px;font-family:Helvetica;color:#000000;direction:ltr;letter-spacing:0px;line-height:120%;opacity:1&quot;&gt;TCP&lt;/font&gt;&lt;/div&gt;" style="verticalAlign=middle;align=center;overflow=width;vsdxID=46;fillColor=none;gradientColor=none;strokeColor=none;spacingTop=-3;spacingBottom=-3;spacingLeft=-3;spacingRight=-3;points=[];labelBackgroundColor=#ffffff;rounded=0;html=1;whiteSpace=wrap;" parent="44" vertex="1">
          <mxGeometry as="geometry" />
        </mxCell>
        <UserObject label="" tags="Background" id="65">
          <mxCell style="vsdxID=45;edgeStyle=none;startArrow=none;endArrow=classic;startSize=5;endSize=5;strokeColor=#000000;spacingTop=0;spacingBottom=0;spacingLeft=0;spacingRight=0;verticalAlign=middle;html=1;labelBackgroundColor=#ffffff;rounded=0;exitX=1;exitY=0.5;exitDx=0;exitDy=0;exitPerimeter=0;entryX=0;entryY=0.5;entryDx=0;entryDy=0;entryPerimeter=0;" parent="44" source="32" target="39" edge="1">
            <mxGeometry relative="1" as="geometry">
              <mxPoint x="-51" y="102" as="offset" />
              <Array as="points" />
            </mxGeometry>
          </mxCell>
        </UserObject>
        <UserObject label="" tags="Background" id="46">
          <mxCell style="vsdxID=4710000;fillColor=none;gradientColor=none;strokeColor=none;spacingTop=-3;spacingBottom=-3;spacingLeft=-3;spacingRight=-3;points=[];labelBackgroundColor=none;rounded=0;html=1;whiteSpace=wrap;" parent="1" vertex="1">
            <mxGeometry as="geometry" />
          </mxCell>
        </UserObject>
        <mxCell id="47" value="&lt;div style=&quot;font-size: 1px&quot;&gt;&lt;font style=&quot;font-size:10.67px;font-family:Helvetica;color:#000000;direction:ltr;letter-spacing:0px;line-height:120%;opacity:1&quot;&gt;HTTPS&lt;/font&gt;&lt;/div&gt;" style="verticalAlign=middle;align=center;overflow=width;vsdxID=48;fillColor=none;gradientColor=none;strokeColor=none;spacingTop=-3;spacingBottom=-3;spacingLeft=-3;spacingRight=-3;points=[];labelBackgroundColor=#ffffff;rounded=0;html=1;whiteSpace=wrap;" parent="46" vertex="1">
          <mxGeometry x="-72" y="-2" as="geometry" />
        </mxCell>
        <UserObject label="" tags="Background" id="66">
          <mxCell style="vsdxID=47;edgeStyle=none;startArrow=classic;endArrow=classic;startSize=5;endSize=5;strokeColor=#000000;spacingTop=0;spacingBottom=0;spacingLeft=0;spacingRight=0;verticalAlign=middle;html=1;labelBackgroundColor=#ffffff;rounded=0;exitX=1;exitY=0.5;exitDx=0;exitDy=0;exitPerimeter=0;entryX=0;entryY=0.5;entryDx=0;entryDy=0;entryPerimeter=0;" parent="46" source="14" target="22" edge="1">
            <mxGeometry relative="1" as="geometry">
              <mxPoint x="-163" y="102" as="offset" />
              <Array as="points">
                <mxPoint x="600" y="286" />
              </Array>
            </mxGeometry>
          </mxCell>
        </UserObject>
        <UserObject label="" tags="Background" id="48">
          <mxCell style="vsdxID=4910000;fillColor=none;gradientColor=none;strokeColor=none;spacingTop=-3;spacingBottom=-3;spacingLeft=-3;spacingRight=-3;points=[];labelBackgroundColor=none;rounded=0;html=1;whiteSpace=wrap;" parent="1" vertex="1">
            <mxGeometry as="geometry" />
          </mxCell>
        </UserObject>
        <mxCell id="49" value="&lt;div style=&quot;font-size: 1px&quot;&gt;&lt;font style=&quot;font-size:10.67px;font-family:Helvetica;color:#000000;direction:ltr;letter-spacing:0px;line-height:120%;opacity:1&quot;&gt;HTTPS&lt;/font&gt;&lt;/div&gt;" style="verticalAlign=middle;align=center;overflow=width;vsdxID=50;fillColor=none;gradientColor=none;strokeColor=none;spacingTop=-3;spacingBottom=-3;spacingLeft=-3;spacingRight=-3;points=[];labelBackgroundColor=#ffffff;rounded=0;html=1;whiteSpace=wrap;" parent="48" vertex="1">
          <mxGeometry x="-13" y="11" as="geometry" />
        </mxCell>
        <UserObject label="" tags="Background" id="67">
          <mxCell style="vsdxID=49;edgeStyle=none;startArrow=none;endArrow=classic;startSize=5;endSize=5;strokeColor=#000000;spacingTop=0;spacingBottom=0;spacingLeft=0;spacingRight=0;verticalAlign=middle;html=1;labelBackgroundColor=#ffffff;rounded=0;exitX=0.75;exitY=0;exitDx=0;exitDy=0;exitPerimeter=0;entryX=0;entryY=0.75;entryDx=0;entryDy=0;entryPerimeter=0;" parent="48" source="13" target="22" edge="1">
            <mxGeometry relative="1" as="geometry">
              <mxPoint x="-117" y="308" as="offset" />
              <Array as="points">
                <mxPoint x="610" y="306" />
              </Array>
            </mxGeometry>
          </mxCell>
        </UserObject>
        <UserObject label="" tags="Background" id="50">
          <mxCell style="vsdxID=5110000;fillColor=none;gradientColor=none;strokeColor=none;spacingTop=-3;spacingBottom=-3;spacingLeft=-3;spacingRight=-3;points=[];labelBackgroundColor=none;rounded=0;html=1;whiteSpace=wrap;" parent="1" vertex="1">
            <mxGeometry as="geometry" />
          </mxCell>
        </UserObject>
        <mxCell id="51" value="&lt;div style=&quot;font-size: 1px&quot;&gt;&lt;font style=&quot;font-size:10.67px;font-family:Helvetica;color:#000000;direction:ltr;letter-spacing:0px;line-height:120%;opacity:1&quot;&gt;HTTPS&lt;/font&gt;&lt;/div&gt;" style="verticalAlign=middle;align=center;overflow=width;vsdxID=52;fillColor=none;gradientColor=none;strokeColor=none;spacingTop=-3;spacingBottom=-3;spacingLeft=-3;spacingRight=-3;points=[];labelBackgroundColor=#ffffff;rounded=0;html=1;whiteSpace=wrap;" parent="50" vertex="1">
          <mxGeometry as="geometry" />
        </mxCell>
        <UserObject label="" tags="Background" id="68">
          <mxCell style="vsdxID=51;edgeStyle=none;startArrow=none;endArrow=classic;startSize=5;endSize=5;strokeColor=#000000;spacingTop=0;spacingBottom=0;spacingLeft=0;spacingRight=0;verticalAlign=middle;html=1;labelBackgroundColor=#ffffff;rounded=0;exitX=1;exitY=0.24347826086956523;exitDx=0;exitDy=0;exitPerimeter=0;entryX=0;entryY=0.5;entryDx=0;entryDy=0;entryPerimeter=0;" parent="50" source="13" target="31" edge="1">
            <mxGeometry relative="1" as="geometry">
              <mxPoint x="-112" y="258" as="offset" />
              <Array as="points">
                <mxPoint x="620" y="414.25" />
              </Array>
            </mxGeometry>
          </mxCell>
        </UserObject>
        <UserObject label="&lt;div style=&quot;font-size: 1px&quot;&gt;&lt;font style=&quot;font-size:15.52px;font-family:Helvetica;color:#000000;direction:ltr;letter-spacing:0px;line-height:120%;opacity:1&quot;&gt;Digitiser&lt;/font&gt;&lt;/div&gt;" tags="Background" id="52">
          <mxCell style="verticalAlign=middle;align=center;overflow=width;vsdxID=54;fillColor=#262DFC;gradientColor=none;shape=stencil(nVZbctswDDyNfjEkIL6+0/QemcapNXXtjOK09u1LDR8iQYt2+kfDCy6weFADPX3sX953A4qP83z6tfs7vZ73A30bEKfjfjdPZ38a6Hmgp7fTvPs5nz6Pr+H3+8uCXE6/T3+WGy7Bz4FUixOKazQoGIPle8D/+JyDgwwAKQBtdIkmg+AwmC4YTGhBmoiKJjWCi1wXiiYRIcQhG+TKADHy8trIpEfQkpEbEFSTG5GjTvzam3SP3yJorPm1BdQ1vxMgsea3Eghrfo+yquZvxD9Mxy8Vqy4uGjCyckDTy67Ep2qPOeGUHRWoaBpB3alsRmxQawR0NXVxKeY+yyBs46MWRY+kbVpuckCGNVVLProk/3be7s44Uat5eS22lcE2RGpRNzP3h3URvE2HQ9gj+f+tLWEod+81z5Ps1tNHxzT1g6r5oCqQfFARrK7T8lOpbZ2WkmC6svrhzvsnyWpAOdZQGiwxWS0IJmuJeqyhCoc0R5gzLbaUrblFv5dEt48UsMUkajokkJoNTxEUtaiHci0d5CqhZeQO7MiGx+QlnciXlmbkS6G7/NIPC0tc6eST+dddkuiNama3AKV97AeKeuyFS7Q4C44lr0Bx4QUrtW8Y9hQlyO2HwIueeucmnMfpRhjHOtA1hvRqrYqkOMtkmifqcZVKn/SQypxB4rc6k13X/cB7pFxFqUfYLmq23N39JiotO8Jn0b4O7Rb0v6FiM3G22v2BfxN6U/iepOd/);strokeColor=#1559b7;spacingTop=-3;spacingBottom=-3;spacingLeft=-3;spacingRight=-3;points=[];labelBackgroundColor=none;rounded=0;html=1;whiteSpace=wrap;" parent="1" vertex="1">
            <mxGeometry x="462" y="33" width="78" height="78" as="geometry" />
          </mxCell>
        </UserObject>
        <UserObject label="&lt;div style=&quot;font-size: 1px&quot;&gt;&lt;font style=&quot;font-size:15.52px;font-family:Helvetica;color:#232f3e;direction:ltr;letter-spacing:0px;line-height:120%;opacity:1&quot;&gt;Collection Manager&lt;/font&gt;&lt;/div&gt;" tags="Background" id="53">
          <mxCell style="verticalAlign=middle;align=center;overflow=width;vsdxID=57;fillColor=#232F3D;gradientColor=none;shape=stencil(nVZbctswDDyNfjEkIL6+0/QemcapNXXtjOK09u1LDR8iQYt2+kfDCy6weFADPX3sX953A4qP83z6tfs7vZ73A30bEKfjfjdPZ38a6Hmgp7fTvPs5nz6Pr+H3+8uCXE6/T3+WGy7Bz4FUixOKazQoGIPle8D/+JyDgwwAKQBtdIkmg+AwmC4YTGhBmoiKJjWCi1wXiiYRIcQhG+TKADHy8trIpEfQkpEbEFSTG5GjTvzam3SP3yJorPm1BdQ1vxMgsea3Eghrfo+yquZvxD9Mxy8Vqy4uGjCyckDTy67Ep2qPOeGUHRWoaBpB3alsRmxQawR0NXVxKeY+yyBs46MWRY+kbVpuckCGNVVLProk/3be7s44Uat5eS22lcE2RGpRNzP3h3URvE2HQ9gj+f+tLWEod+81z5Ps1tNHxzT1g6r5oCqQfFARrK7T8lOpbZ2WkmC6svrhzvsnyWpAOdZQGiwxWS0IJmuJeqyhCoc0R5gzLbaUrblFv5dEt48UsMUkajokkJoNTxEUtaiHci0d5CqhZeQO7MiGx+QlnciXlmbkS6G7/NIPC0tc6eST+dddkuiNama3AKV97AeKeuyFS7Q4C44lr0Bx4QUrtW8Y9hQlyO2HwIueeucmnMfpRhjHOtA1hvRqrYqkOMtkmifqcZVKn/SQypxB4rc6k13X/cB7pFxFqUfYLmq23N39JiotO8Jn0b4O7Rb0v6FiM3G22v2BfxN6U/iepOd/);strokeColor=none;spacingTop=-3;spacingBottom=-3;spacingLeft=-3;spacingRight=-3;points=[];labelBackgroundColor=none;rounded=0;html=1;whiteSpace=wrap;" parent="1" vertex="1">
            <mxGeometry x="591" y="33" width="78" height="78" as="geometry" />
          </mxCell>
        </UserObject>
        <UserObject label="&lt;div style=&quot;font-size: 1px&quot;&gt;&lt;font style=&quot;font-size:26.19px;font-family:Helvetica;color:#000000;direction:ltr;letter-spacing:0px;line-height:120%;opacity:1&quot;&gt;v1.1.0&lt;/font&gt;&lt;/div&gt;" tags="Background" id="54">
          <mxCell style="verticalAlign=middle;align=center;overflow=width;vsdxID=59;fillColor=none;gradientColor=none;shape=stencil(nZBRDoQgDERP03+WHsHFe5iISyOCQdT19kIaIxq//Jtp3zTpAFaTaUYNUkwx+F6v1EYD+AUpyRkdKCYFqACrzgf9C352LfuxyWRWg1/yhT/nRE5IsZWuZtCSK8CPeI0e/hF+jV7AJM4PO7KWCyr390bSiNtEtQM=);strokeColor=none;spacingTop=-3;spacingBottom=-3;spacingLeft=-3;spacingRight=-3;points=[];labelBackgroundColor=none;rounded=0;html=1;whiteSpace=wrap;" parent="1" vertex="1">
            <mxGeometry x="1310" y="33" width="100" height="50" as="geometry" />
          </mxCell>
        </UserObject>
        <UserObject label="" tags="Background" id="55">
          <mxCell style="vsdxID=12;edgeStyle=none;startArrow=none;endArrow=classic;startSize=5;endSize=5;strokeColor=#000000;spacingTop=0;spacingBottom=0;spacingLeft=0;spacingRight=0;verticalAlign=middle;html=1;labelBackgroundColor=#ffffff;rounded=0;exitX=1;exitY=0.5;exitDx=0;exitDy=0;exitPerimeter=0;entryX=0.5;entryY=1;entryDx=0;entryDy=0;entryPerimeter=0;" parent="1" source="10" target="13" edge="1">
            <mxGeometry relative="1" as="geometry">
              <mxPoint x="-88" y="101" as="offset" />
              <Array as="points">
                <mxPoint x="440" y="725" />
              </Array>
            </mxGeometry>
          </mxCell>
        </UserObject>
        <UserObject label="" tags="Background" id="56">
          <mxCell style="vsdxID=16;edgeStyle=none;startArrow=none;endArrow=classic;startSize=5;endSize=5;strokeColor=#000000;spacingTop=0;spacingBottom=0;spacingLeft=0;spacingRight=0;verticalAlign=middle;html=1;labelBackgroundColor=#ffffff;rounded=0;exitX=0.9487179487179487;exitY=0.5;exitDx=0;exitDy=0;exitPerimeter=0;entryX=0;entryY=0.5;entryDx=0;entryDy=0;entryPerimeter=0;" parent="1" source="17" target="14" edge="1">
            <mxGeometry relative="1" as="geometry">
              <mxPoint x="-114" y="102" as="offset" />
              <Array as="points" />
            </mxGeometry>
          </mxCell>
        </UserObject>
        <UserObject label="" tags="Background" id="57">
          <mxCell style="vsdxID=18;edgeStyle=none;startArrow=none;endArrow=classic;startSize=5;endSize=5;strokeColor=#000000;spacingTop=0;spacingBottom=0;spacingLeft=0;spacingRight=0;verticalAlign=middle;html=1;labelBackgroundColor=#ffffff;rounded=0;exitX=0.9487179487179487;exitY=0.5;exitDx=0;exitDy=0;exitPerimeter=0;entryX=0;entryY=0.5;entryDx=0;entryDy=0;entryPerimeter=0;" parent="1" source="18" target="10" edge="1">
            <mxGeometry relative="1" as="geometry">
              <mxPoint x="-43" y="102" as="offset" />
              <Array as="points" />
            </mxGeometry>
          </mxCell>
        </UserObject>
        <UserObject label="" tags="Background" id="69">
          <mxCell style="vsdxID=53;edgeStyle=none;startArrow=none;endArrow=classic;startSize=5;endSize=5;strokeColor=#000000;spacingTop=0;spacingBottom=0;spacingLeft=0;spacingRight=0;verticalAlign=middle;html=1;labelBackgroundColor=#ffffff;rounded=0;exitX=0.7692307692307693;exitY=1;exitDx=0;exitDy=0;exitPerimeter=0;entryX=0;entryY=0.25;entryDx=0;entryDy=0;entryPerimeter=0;" parent="1" source="52" target="22" edge="1">
            <mxGeometry relative="1" as="geometry">
              <mxPoint x="-93" y="101" as="offset" />
              <Array as="points">
                <mxPoint x="609.09" y="266" />
              </Array>
            </mxGeometry>
          </mxCell>
        </UserObject>
        <UserObject label="" tags="Background" id="70">
          <mxCell style="vsdxID=55;edgeStyle=none;startArrow=none;endArrow=classic;startSize=5;endSize=5;strokeColor=#000000;spacingTop=0;spacingBottom=0;spacingLeft=0;spacingRight=0;verticalAlign=middle;html=1;labelBackgroundColor=#ffffff;rounded=0;exitX=0.2948717948717949;exitY=1;exitDx=0;exitDy=0;exitPerimeter=0;entryX=0.6333333333333333;entryY=0;entryDx=0;entryDy=0;entryPerimeter=0;" parent="1" source="52" target="14" edge="1">
            <mxGeometry relative="1" as="geometry">
              <mxPoint x="27" y="168" as="offset" />
              <Array as="points" />
            </mxGeometry>
          </mxCell>
        </UserObject>
        <UserObject label="" tags="Background" id="71">
          <mxCell style="vsdxID=56;edgeStyle=none;startArrow=none;endArrow=classic;startSize=5;endSize=5;strokeColor=#000000;spacingTop=0;spacingBottom=0;spacingLeft=0;spacingRight=0;verticalAlign=middle;html=1;labelBackgroundColor=#ffffff;rounded=0;exitX=0.05128205128205128;exitY=1;exitDx=0;exitDy=0;exitPerimeter=0;entryX=1;entryY=0;entryDx=0;entryDy=0;entryPerimeter=0;" parent="1" source="53" target="14" edge="1">
            <mxGeometry relative="1" as="geometry">
              <mxPoint x="60" y="168" as="offset" />
              <Array as="points" />
            </mxGeometry>
          </mxCell>
        </UserObject>
        <UserObject label="" tags="Background" id="72">
          <mxCell style="vsdxID=58;edgeStyle=none;startArrow=none;endArrow=classic;startSize=5;endSize=5;strokeColor=#000000;spacingTop=0;spacingBottom=0;spacingLeft=0;spacingRight=0;verticalAlign=middle;html=1;labelBackgroundColor=#ffffff;rounded=0;exitX=0.5;exitY=1;exitDx=0;exitDy=0;exitPerimeter=0;entryX=0;entryY=0.075;entryDx=0;entryDy=0;entryPerimeter=0;" parent="1" source="53" target="22" edge="1">
            <mxGeometry relative="1" as="geometry">
              <mxPoint x="-14" y="101" as="offset" />
              <Array as="points">
                <mxPoint x="630" y="253" />
              </Array>
            </mxGeometry>
          </mxCell>
        </UserObject>
      </root>
    </mxGraphModel>
  </diagram>
</mxfile>
